<svg width="26" height="26" fill="none" xmlns="http://www.w3.org/2000/svg"><path d="M19.68 15.578c-.727-.156-1.303.182-1.813.477-.521.304-1.514 1.109-2.083.903-2.913-1.2-5.653-3.75-6.839-6.674-.209-.58.593-1.58.895-2.108.292-.511.623-1.092.472-1.825-.136-.66-1.9-2.904-2.524-3.517-.41-.406-.832-.629-1.265-.665-1.626-.07-3.443 2.1-3.761 2.62-.798 1.107-.794 2.58.013 4.366 1.945 4.797 9.301 12.037 14.117 14.055.888.416 1.701.624 2.43.624.715 0 1.351-.2 1.898-.595.412-.237 2.671-2.144 2.612-3.814-.036-.425-.258-.851-.658-1.263-.61-.63-2.84-2.446-3.493-2.584z" fill="#DEE21B"/></svg>