<svg width="101" height="97" fill="none" xmlns="http://www.w3.org/2000/svg"><path d="M48.304 16.809v46.108m0 32.496L96.17 78.726v-29.38a1 1 0 00-1.298-.954L48.304 62.917m0 32.496V62.917m0 32.496L3.598 79.156c-.968-.352-.836-1.76.18-1.926l20.374-3.334m24.152-10.979L2.451 48.21a1 1 0 01-.694-.953V17.526a1 1 0 01.678-.947l45.552-15.47a1 1 0 01.635-.003l46.861 15.477a1 1 0 01.687.95v4.938" stroke="#fff" stroke-width="2" stroke-linecap="round"/><circle cx="95.731" cy="35.009" r="4.27" stroke="#DEE21B" stroke-width="2"/></svg>