<svg width="13" height="13" fill="none" xmlns="http://www.w3.org/2000/svg"><path d="M10.508 8.046c-.436-.093-.782.11-1.087.286-.314.183-.91.666-1.25.542-1.748-.72-3.392-2.25-4.104-4.004-.125-.349.356-.948.537-1.265.176-.307.374-.655.284-1.095C4.806 2.115 3.748.768 3.373.4c-.247-.244-.5-.377-.759-.4C1.638-.041.548 1.261.357 1.573c-.479.664-.476 1.548.008 2.62 1.167 2.878 5.58 7.222 8.47 8.433.533.249 1.02.374 1.459.374a1.9 1.9 0 001.138-.357c.247-.142 1.603-1.286 1.567-2.288-.021-.256-.155-.511-.395-.758-.365-.378-1.703-1.468-2.096-1.55z" fill="#929395"/></svg>