<svg width="40" height="40" fill="none" xmlns="http://www.w3.org/2000/svg"><path d="M20.401 9.598c-2.713 0-3.053 0-4.12.06a7.334 7.334 0 00-2.433.466 4.82 4.82 0 00-1.767 1.154 4.82 4.82 0 00-1.153 1.766 7.334 7.334 0 00-.467 2.434c-.06 1.066-.06 1.406-.06 4.12 0 2.713 0 3.053.06 4.12.017.831.175 1.654.467 2.433.25.667.643 1.27 1.153 1.767.497.51 1.1.904 1.767 1.153.779.292 1.602.45 2.433.467 1.067.046 1.407.06 4.12.06 2.714 0 3.054 0 4.12-.06a7.337 7.337 0 002.434-.467 5.134 5.134 0 002.92-2.92c.292-.779.45-1.602.466-2.433.06-1.067.06-1.407.06-4.12 0-2.714 0-3.054-.06-4.12a7.334 7.334 0 00-.466-2.434 4.82 4.82 0 00-1.154-1.766 4.821 4.821 0 00-1.766-1.154 7.334 7.334 0 00-2.434-.466c-1.066-.06-1.406-.06-4.12-.06z" fill="#fff"/><path fill-rule="evenodd" clip-rule="evenodd" d="M20 40c11.046 0 20-8.954 20-20S31.046 0 20 0 0 8.954 0 20s8.954 20 20 20zM16.281 9.66c1.067-.06 1.407-.06 4.12-.06 2.714 0 3.054 0 4.12.06a7.333 7.333 0 012.434.466c.666.249 1.27.643 1.766 1.153.51.497.904 1.1 1.154 1.767.292.779.45 1.601.466 2.433.06 1.067.06 1.407.06 4.12s0 3.053-.06 4.12a7.335 7.335 0 01-.466 2.433 5.132 5.132 0 01-2.92 2.92 7.334 7.334 0 01-2.434.467c-1.066.06-1.406.06-4.12.06-2.713 0-3.053-.013-4.12-.06a7.334 7.334 0 01-2.433-.466 4.821 4.821 0 01-1.767-1.154 4.822 4.822 0 01-1.153-1.767 7.337 7.337 0 01-.467-2.433c-.06-1.067-.06-1.407-.06-4.12s0-3.053.06-4.12a7.337 7.337 0 01.467-2.433c.25-.667.643-1.27 1.153-1.767a4.82 4.82 0 011.767-1.153 7.333 7.333 0 012.433-.467zm1.268 5.671a5.134 5.134 0 115.704 8.538 5.134 5.134 0 01-5.704-8.538zm1 7.04a3.333 3.333 0 103.704-5.543 3.333 3.333 0 00-3.704 5.543zm8.851-8.164a1.2 1.2 0 11-2.4-.014 1.2 1.2 0 012.4.014z" fill="url(#paint0_radial)"/><path fill-rule="evenodd" clip-rule="evenodd" d="M20 40c11.046 0 20-8.954 20-20S31.046 0 20 0 0 8.954 0 20s8.954 20 20 20zM16.281 9.66c1.067-.06 1.407-.06 4.12-.06 2.714 0 3.054 0 4.12.06a7.333 7.333 0 012.434.466c.666.249 1.27.643 1.766 1.153.51.497.904 1.1 1.154 1.767.292.779.45 1.601.466 2.433.06 1.067.06 1.407.06 4.12s0 3.053-.06 4.12a7.335 7.335 0 01-.466 2.433 5.132 5.132 0 01-2.92 2.92 7.334 7.334 0 01-2.434.467c-1.066.06-1.406.06-4.12.06-2.713 0-3.053-.013-4.12-.06a7.334 7.334 0 01-2.433-.466 4.821 4.821 0 01-1.767-1.154 4.822 4.822 0 01-1.153-1.767 7.337 7.337 0 01-.467-2.433c-.06-1.067-.06-1.407-.06-4.12s0-3.053.06-4.12a7.337 7.337 0 01.467-2.433c.25-.667.643-1.27 1.153-1.767a4.82 4.82 0 011.767-1.153 7.333 7.333 0 012.433-.467zm1.268 5.671a5.134 5.134 0 115.704 8.538 5.134 5.134 0 01-5.704-8.538zm1 7.04a3.333 3.333 0 103.704-5.543 3.333 3.333 0 00-3.704 5.543zm8.851-8.164a1.2 1.2 0 11-2.4-.014 1.2 1.2 0 012.4.014z" fill="#fff" fill-opacity=".3"/><defs><radialGradient id="paint0_radial" cx="0" cy="0" r="1" gradientUnits="userSpaceOnUse" gradientTransform="matrix(28.5 -72.00005 53.94366 21.35269 3 55.5)"><stop stop-color="#F9ED32"/><stop offset=".62" stop-color="#EE2A7B"/><stop offset="1" stop-color="#002AFF"/></radialGradient></defs></svg>