<svg width="40" height="40" fill="none" xmlns="http://www.w3.org/2000/svg"><path fill-rule="evenodd" clip-rule="evenodd" d="M40 20c0 11.046-8.954 20-20 20S0 31.046 0 20 8.954 0 20 0s20 8.954 20 20zm-19.283-5.235c-1.946.81-5.833 2.484-11.664 5.024-.947.377-1.443.745-1.488 1.105-.076.609.686.848 1.724 1.175.141.044.288.09.438.139 1.02.332 2.394.72 3.108.736.648.014 1.371-.253 2.17-.802 5.447-3.677 8.259-5.535 8.435-5.575.125-.029.298-.064.415.04.117.104.105.3.093.353-.076.322-3.068 3.104-4.616 4.543-.483.449-.825.767-.895.84-.157.163-.317.317-.47.465-.95.914-1.66 1.6.039 2.72.817.538 1.47.983 2.122 1.427.712.485 1.422.969 2.341 1.571.234.154.458.313.676.468.829.591 1.573 1.122 2.493 1.037.534-.049 1.086-.551 1.366-2.05.663-3.542 1.965-11.217 2.266-14.38a3.528 3.528 0 00-.033-.787c-.027-.155-.082-.377-.285-.541-.24-.195-.61-.236-.775-.233-.752.014-1.906.415-7.46 2.725z" fill="url(#paint0_linear)"/><path fill-rule="evenodd" clip-rule="evenodd" d="M40 20c0 11.046-8.954 20-20 20S0 31.046 0 20 8.954 0 20 0s20 8.954 20 20zm-19.283-5.235c-1.946.81-5.833 2.484-11.664 5.024-.947.377-1.443.745-1.488 1.105-.076.609.686.848 1.724 1.175.141.044.288.09.438.139 1.02.332 2.394.72 3.108.736.648.014 1.371-.253 2.17-.802 5.447-3.677 8.259-5.535 8.435-5.575.125-.029.298-.064.415.04.117.104.105.3.093.353-.076.322-3.068 3.104-4.616 4.543-.483.449-.825.767-.895.84-.157.163-.317.317-.47.465-.95.914-1.66 1.6.039 2.72.817.538 1.47.983 2.122 1.427.712.485 1.422.969 2.341 1.571.234.154.458.313.676.468.829.591 1.573 1.122 2.493 1.037.534-.049 1.086-.551 1.366-2.05.663-3.542 1.965-11.217 2.266-14.38a3.528 3.528 0 00-.033-.787c-.027-.155-.082-.377-.285-.541-.24-.195-.61-.236-.775-.233-.752.014-1.906.415-7.46 2.725z" fill="#fff" fill-opacity=".3"/><path fill-rule="evenodd" clip-rule="evenodd" d="M9.053 19.788c5.83-2.54 9.718-4.215 11.663-5.024 5.554-2.31 6.709-2.711 7.46-2.725.166-.003.536.038.776.233.202.164.258.386.284.541.027.156.06.51.034.788-.301 3.162-1.603 10.837-2.266 14.379-.28 1.498-.832 2-1.367 2.05-1.161.107-2.043-.767-3.168-1.505-1.76-1.154-2.755-1.872-4.463-2.998-1.975-1.301-.695-2.016.43-3.185.295-.306 5.412-4.96 5.511-5.383.013-.053.024-.25-.093-.354-.117-.104-.29-.068-.414-.04-.177.04-2.989 1.9-8.436 5.576-.798.548-1.521.815-2.169.801-.714-.015-2.088-.403-3.109-.735-1.252-.407-2.248-.623-2.161-1.314.045-.36.54-.729 1.488-1.105z" fill="#fff"/><defs><linearGradient id="paint0_linear" x1="20" y1="0" x2="20" y2="39.703" gradientUnits="userSpaceOnUse"><stop stop-color="#2AABEE"/><stop offset="1" stop-color="#229ED9"/></linearGradient></defs></svg>