<svg width="41" height="40" fill="none" xmlns="http://www.w3.org/2000/svg"><path fill-rule="evenodd" clip-rule="evenodd" d="M20.5 40c11.046 0 20-8.954 20-20s-8.954-20-20-20S.5 8.954.5 20s8.954 20 20 20zm10.761-20.923c0 5.843-4.736 10.58-10.58 10.58a10.53 10.53 0 01-5.19-1.359l-5.752 1.85 1.848-5.662a10.531 10.531 0 01-1.485-5.409c0-5.843 4.736-10.58 10.58-10.58 5.843 0 10.58 4.737 10.58 10.58z" fill="#65BC54"/><path fill-rule="evenodd" clip-rule="evenodd" d="M20.5 40c11.046 0 20-8.954 20-20s-8.954-20-20-20S.5 8.954.5 20s8.954 20 20 20zm10.761-20.923c0 5.843-4.736 10.58-10.58 10.58a10.53 10.53 0 01-5.19-1.359l-5.752 1.85 1.848-5.662a10.531 10.531 0 01-1.485-5.409c0-5.843 4.736-10.58 10.58-10.58 5.843 0 10.58 4.737 10.58 10.58z" fill="#fff" fill-opacity=".3"/><path d="M20.681 29.656c5.843 0 10.58-4.737 10.58-10.58s-4.737-10.58-10.58-10.58-10.58 4.737-10.58 10.58c0 1.976.542 3.825 1.485 5.408l-1.848 5.663 5.752-1.85a10.532 10.532 0 005.191 1.359z" fill="#fff"/><path fill-rule="evenodd" clip-rule="evenodd" d="M19.115 16.766c0-.26-.174-.694-.26-.954-.087-.26-.52-1.562-.694-1.735-.2-.299-1.1-.138-1.417-.028-.68.234-.939.62-1.13 1.141-.396 1.081.113 3.175.551 3.832.512.768.961 1.483 1.562 2.169.434.434.78.868 1.214 1.215 1.19.891 2.471 2.067 4.165 1.995 1.094-.047 2.2-.235 2.603-1.041.173-.26.347-.868.347-1.215 0-.474-.89-.871-1.255-1.068-.623-.336-1.427-.651-1.695-.32-.331.41-.378 1.112-.955 1.128-.445.012-.91-.325-1.3-.52-.868-.608-1.736-1.389-2.343-2.256l-.434-.694c0-.723.877-.994 1.04-1.649z" fill="#93D087"/></svg>