<svg width="25" height="26" fill="none" xmlns="http://www.w3.org/2000/svg"><path d="M12.507 3.241c3.342 0 3.738.015 5.052.073 1.221.054 1.881.26 2.32.43a3.868 3.868 0 011.437.933c.44.44.709.855.933 1.436.171.44.377 1.104.43 2.32.059 1.318.074 1.714.074 5.05 0 3.34-.015 3.735-.074 5.05-.053 1.22-.259 1.88-.43 2.319a3.868 3.868 0 01-.933 1.436 3.85 3.85 0 01-1.436.933c-.44.17-1.104.376-2.32.43-1.32.058-1.716.073-5.053.073-3.341 0-3.737-.015-5.051-.074-1.222-.053-1.881-.258-2.321-.43a3.87 3.87 0 01-1.437-.932 3.846 3.846 0 01-.933-1.436c-.17-.44-.376-1.104-.43-2.32-.058-1.318-.073-1.714-.073-5.05 0-3.34.015-3.736.073-5.05.054-1.22.26-1.88.43-2.32a3.866 3.866 0 01.933-1.435c.44-.44.855-.708 1.437-.933.44-.17 1.104-.376 2.32-.43 1.315-.058 1.71-.073 5.052-.073zm0-2.251c-3.395 0-3.82.014-5.154.073-1.329.059-2.243.273-3.034.581A6.105 6.105 0 002.1 3.09 6.126 6.126 0 00.655 5.302C.347 6.098.132 7.007.073 8.335.015 9.673 0 10.098 0 13.492s.015 3.82.073 5.153c.059 1.328.274 2.241.582 3.032A6.102 6.102 0 002.1 23.895a6.113 6.113 0 002.213 1.44c.796.308 1.705.523 3.034.581 1.334.06 1.759.074 5.154.074 3.396 0 3.821-.015 5.155-.073 1.329-.06 2.242-.274 3.034-.582a6.113 6.113 0 002.213-1.44 6.11 6.11 0 001.441-2.213c.308-.796.523-1.704.582-3.033.058-1.333.073-1.758.073-5.152s-.015-3.819-.073-5.152c-.059-1.329-.274-2.242-.582-3.033a5.855 5.855 0 00-1.431-2.222A6.113 6.113 0 0020.7 1.649c-.797-.308-1.706-.523-3.034-.581-1.34-.064-1.764-.078-5.16-.078z" fill="#88888B"/><path d="M12.507 7.07a6.425 6.425 0 00-6.424 6.422 6.425 6.425 0 0012.849 0 6.425 6.425 0 00-6.425-6.422zm0 10.588a4.167 4.167 0 01-4.167-4.166 4.167 4.167 0 018.335 0c0 2.3-1.867 4.166-4.168 4.166zm8.179-10.842a1.5 1.5 0 11-3-.001 1.5 1.5 0 013 .001z" fill="#88888B"/></svg>