<svg width="29" height="30" fill="none" xmlns="http://www.w3.org/2000/svg"><g clip-path="url(#clip0)" fill="#88888B"><path d="M27.979 17.366c.865-7.534-.416-12.29-2.726-14.441l.001-.001C21.525-.75 8.932-1.294 4.471 3.089c-2.004 2.143-2.71 5.29-2.787 9.185-.077 3.896-.169 11.195 6.406 13.175h.006l-.006 3.023s-.045 1.225.711 1.472c.866.29 1.257-.28 3.948-3.604 4.5.404 7.956-.521 8.348-.656.91-.315 6.05-1.02 6.882-8.318zm-14.786 6.846s-2.848 3.674-3.734 4.628c-.29.31-.608.281-.603-.334 0-.404.022-5.02.022-5.02-5.574-1.652-5.246-7.867-5.185-11.119.06-3.252.635-5.916 2.332-7.71C9.939.861 20.979 1.71 23.792 4.445c3.439 3.154 2.215 12.064 2.222 12.367-.707 6.093-4.873 6.48-5.64 6.743-.327.112-3.365.921-7.181.657z"/><path d="M14.768 5.371c-.465 0-.465.75 0 .756 3.61.03 6.582 2.632 6.615 7.405 0 .504.713.498.707-.006h-.002c-.038-5.144-3.284-8.126-7.32-8.155z"/><path d="M19.516 12.741c-.011.498.7.521.707.018.059-2.836-1.631-5.173-4.808-5.419-.465-.035-.514.721-.05.756 2.755.217 4.206 2.162 4.15 4.645zm-.761 3.227c-.597-.358-1.205-.135-1.456.216l-.526.704c-.267.357-.766.31-.766.31-3.642-.997-4.616-4.94-4.616-4.94s-.045-.533.289-.82l.657-.562c.329-.27.537-.92.202-1.558-.894-1.672-1.495-2.248-1.8-2.69-.322-.417-.805-.51-1.308-.23h-.01c-1.046.633-2.19 1.817-1.824 3.036.624 1.285 1.772 5.381 5.431 8.476 1.72 1.464 4.44 2.964 5.596 3.31l.01.018c1.14.392 2.246-.838 2.837-1.952v-.008c.262-.54.175-1.05-.208-1.383-.68-.685-1.704-1.441-2.509-1.927z"/><path d="M15.912 10.13c1.162.07 1.725.698 1.785 1.986.022.504.729.47.707-.035-.077-1.682-.925-2.62-2.453-2.707-.465-.029-.508.727-.039.756z"/></g><defs><clipPath id="clip0"><path fill="#fff" d="M0 0h29v30H0z"/></clipPath></defs></svg>