<svg width="27" height="27" fill="none" xmlns="http://www.w3.org/2000/svg"><path fill-rule="evenodd" clip-rule="evenodd" d="M22.454 4.51A12.462 12.462 0 0013.58.83C6.668.83 1.041 6.458 1.038 13.374c0 2.21.577 4.368 1.674 6.27l-1.78 6.5 6.65-1.744a12.53 12.53 0 005.994 1.526h.005c6.913 0 12.54-5.627 12.543-12.542a12.466 12.466 0 00-3.67-8.874zM13.58 23.806h-.004c-1.87 0-3.705-.503-5.306-1.453l-.38-.226-3.947 1.035 1.054-3.847-.248-.394a10.4 10.4 0 01-1.594-5.549C3.158 7.625 7.835 2.95 13.586 2.95c2.784 0 5.402 1.087 7.37 3.057a10.363 10.363 0 013.05 7.376c-.002 5.748-4.678 10.425-10.425 10.425zM19.3 16c-.314-.157-1.855-.915-2.142-1.02-.287-.104-.496-.156-.705.158-.209.313-.81 1.02-.992 1.228-.183.21-.366.236-.68.079-.313-.157-1.323-.488-2.52-1.556-.931-.83-1.56-1.857-1.743-2.17-.183-.315-.002-.468.137-.64.34-.422.68-.864.784-1.072.104-.21.052-.393-.027-.55-.078-.156-.705-1.7-.966-2.327-.254-.61-.512-.528-.705-.538a12.52 12.52 0 00-.6-.01c-.21 0-.55.078-.836.392-.288.313-1.097 1.071-1.097 2.614s1.123 3.033 1.28 3.242c.156.21 2.21 3.375 5.353 4.732a17.66 17.66 0 001.787.66c.75.24 1.434.206 1.974.125.602-.09 1.854-.758 2.116-1.49.26-.733.26-1.36.182-1.49-.078-.131-.287-.21-.6-.367z" fill="#88888B"/></svg>